<svg viewBox="0 0 21 21" fill="none" xmlns="http://www.w3.org/2000/svg">
				<path
					d="M6.9213 13.4687H17.9485C18.2215 13.4687 18.4611 13.2881 18.535 13.0258L20.9766 4.48076C21.029 4.29654 20.9931 4.09866 20.8775 3.94559C20.7618 3.793 20.5819 3.70288 20.3899 3.70288H5.51225L5.07595 1.73958C5.01396 1.46 4.766 1.26147 4.4799 1.26147H0.7771C0.439817 1.26147 0.166748 1.53454 0.166748 1.87183C0.166748 2.20927 0.439817 2.48218 0.7771 2.48218H3.99003L6.19413 12.4004C5.54563 12.6824 5.09025 13.3278 5.09025 14.079C5.09025 15.0886 5.91168 15.9101 6.9213 15.9101H17.9485C18.2859 15.9101 18.5588 15.6372 18.5588 15.2997C18.5588 14.9624 18.2859 14.6894 17.9485 14.6894H6.9213C6.58513 14.6894 6.31095 14.4158 6.31095 14.079C6.31095 13.7422 6.58513 13.4687 6.9213 13.4687Z"
					fill="white" />
				<path
					d="M6.31104 17.741C6.31104 18.7507 7.13247 19.572 8.14225 19.572C9.15187 19.572 9.9733 18.7507 9.9733 17.741C9.9733 16.7313 9.15187 15.9099 8.14225 15.9099C7.13247 15.9099 6.31104 16.7313 6.31104 17.741Z"
					fill="white" />
				<path
					d="M14.8967 17.741C14.8967 18.7507 15.7182 19.572 16.7278 19.572C17.7376 19.572 18.5588 18.7507 18.5588 17.741C18.5588 16.7313 17.7376 15.9099 16.7278 15.9099C15.7182 15.9099 14.8967 16.7313 14.8967 17.741Z"
					fill="white" />
			</svg>