<svg width="22" height="22" viewBox="0 0 22 22" fill="none" xmlns="http://www.w3.org/2000/svg">
<path d="M11.0586 2C10.2383 2 9.44922 2.10547 8.69141 2.31641C7.93359 2.52734 7.21875 2.82812 6.54688 3.21875C5.875 3.60938 5.27344 4.07422 4.74219 4.61328C4.21094 5.15234 3.74609 5.75781 3.34766 6.42969C2.94922 7.10156 2.64844 7.8125 2.44531 8.5625C2.24219 9.3125 2.13281 10.1055 2.11719 10.9414C2.11719 11.7617 2.22266 12.5508 2.43359 13.3086C2.64453 14.0664 2.94531 14.7812 3.33594 15.4531C3.72656 16.125 4.19141 16.7266 4.73047 17.2578C5.26953 17.7891 5.875 18.2539 6.54688 18.6523C7.21875 19.0508 7.92969 19.3516 8.67969 19.5547C9.42969 19.7578 10.2227 19.8672 11.0586 19.8828C11.8789 19.8828 12.668 19.7773 13.4258 19.5664C14.1836 19.3555 14.8984 19.0547 15.5703 18.6641C16.2422 18.2734 16.8438 17.8086 17.375 17.2695C17.9062 16.7305 18.3711 16.125 18.7695 15.4531C19.168 14.7812 19.4688 14.0703 19.6719 13.3203C19.875 12.5703 19.9844 11.7773 20 10.9414C20 10.1211 19.8945 9.33203 19.6836 8.57422C19.4727 7.81641 19.1719 7.10547 18.7812 6.44141C18.3906 5.77734 17.9219 5.17188 17.375 4.625C16.8281 4.07812 16.2266 3.61328 15.5703 3.23047C14.9141 2.84766 14.2031 2.54688 13.4375 2.32812C12.6719 2.10938 11.8789 2 11.0586 2ZM11.0586 0.5C12.0195 0.5 12.9414 0.625 13.8242 0.875C14.707 1.125 15.5391 1.47656 16.3203 1.92969C17.1016 2.38281 17.8047 2.92578 18.4297 3.55859C19.0547 4.19141 19.6016 4.89844 20.0703 5.67969C20.5391 6.46094 20.8906 7.28906 21.125 8.16406C21.3594 9.03906 21.4844 9.96484 21.5 10.9414C21.5 11.9023 21.375 12.8242 21.125 13.707C20.875 14.5898 20.5234 15.4219 20.0703 16.2031C19.6172 16.9844 19.0742 17.6875 18.4414 18.3125C17.8086 18.9375 17.1016 19.4844 16.3203 19.9531C15.5391 20.4219 14.7109 20.7734 13.8359 21.0078C12.9609 21.2422 12.0352 21.3672 11.0586 21.3828C10.0977 21.3828 9.17578 21.2578 8.29297 21.0078C7.41016 20.7578 6.57812 20.4062 5.79688 19.9531C5.01562 19.5 4.3125 18.957 3.6875 18.3242C3.0625 17.6914 2.51562 16.9844 2.04688 16.2031C1.57812 15.4219 1.22656 14.5938 0.992188 13.7188C0.757812 12.8438 0.632812 11.918 0.617188 10.9414C0.617188 9.98047 0.742187 9.05859 0.992188 8.17578C1.24219 7.29297 1.59375 6.46094 2.04688 5.67969C2.5 4.89844 3.04297 4.19531 3.67578 3.57031C4.30859 2.94531 5.01562 2.39844 5.79688 1.92969C6.57812 1.46094 7.40625 1.10938 8.28125 0.875C9.15625 0.640625 10.082 0.515625 11.0586 0.5ZM10.0273 16.4023L8.97266 15.3477L13.3086 11L8.97266 6.65234L10.0273 5.59766L15.4297 11L10.0273 16.4023Z" fill="#00664B"/>
</svg>
