<svg viewBox="0 0 25 25" fill="none" xmlns="http://www.w3.org/2000/svg">
<path d="M11.7181 0.0488924C12.7923 0.0488924 13.8258 0.187239 14.8187 0.463931C15.8115 0.740624 16.7392 1.13125 17.6019 1.63581C18.4645 2.14036 19.2539 2.75072 19.97 3.46686C20.6862 4.18301 21.2925 4.96833 21.7889 5.82282C22.2853 6.67731 22.68 7.60911 22.973 8.61823C23.2659 9.62734 23.4043 10.6609 23.388 11.7188C23.388 12.793 23.2497 13.8266 22.973 14.8194C22.6963 15.8122 22.3056 16.74 21.8011 17.6026C21.2965 18.4652 20.6862 19.2546 19.97 19.9708C19.2539 20.6869 18.4686 21.2932 17.6141 21.7896C16.7596 22.286 15.8278 22.6807 14.8187 22.9737C13.8096 23.2667 12.776 23.405 11.7181 23.3887C10.6439 23.3887 9.61034 23.2504 8.6175 22.9737C7.62466 22.697 6.69692 22.3064 5.83429 21.8018C4.97166 21.2973 4.18227 20.6869 3.46613 19.9708C2.74998 19.2546 2.1437 18.4693 1.64728 17.6148C1.15086 16.7603 0.756168 15.8285 0.463199 14.8194C0.17023 13.8103 0.0318839 12.7768 0.04816 11.7188C0.04816 10.6446 0.186506 9.61107 0.463199 8.61823C0.739892 7.62539 1.13052 6.69766 1.63507 5.83503C2.13963 4.9724 2.74998 4.18301 3.46613 3.46686C4.18227 2.75072 4.96759 2.14443 5.82209 1.64801C6.67658 1.15159 7.60838 0.7569 8.6175 0.463931C9.62661 0.170963 10.6601 0.0326163 11.7181 0.0488924ZM11.7181 21.9239C12.654 21.9239 13.5573 21.8018 14.428 21.5577C15.2988 21.3135 16.1126 20.9717 16.8694 20.5323C17.6263 20.0928 18.3139 19.5598 18.9324 18.9332C19.5509 18.3065 20.0799 17.6189 20.5194 16.8702C20.9588 16.1215 21.3047 15.3077 21.5569 14.4288C21.8092 13.5499 21.9313 12.6466 21.9232 11.7188C21.9232 10.7829 21.8011 9.87962 21.5569 9.00885C21.3128 8.13809 20.971 7.32428 20.5316 6.56745C20.0921 5.81061 19.5591 5.12295 18.9324 4.50446C18.3058 3.88597 17.6181 3.357 16.8694 2.91755C16.1208 2.47809 15.3069 2.13223 14.428 1.87995C13.5491 1.62767 12.6458 1.5056 11.7181 1.51374C10.7822 1.51374 9.87889 1.63581 9.00812 1.87995C8.13735 2.12409 7.32355 2.46588 6.56672 2.90534C5.80988 3.34479 5.12222 3.87783 4.50373 4.50446C3.88524 5.13109 3.35627 5.81875 2.91681 6.56745C2.47736 7.31615 2.13149 8.12995 1.87921 9.00885C1.62694 9.88776 1.50487 10.7911 1.513 11.7188C1.513 12.6547 1.63507 13.558 1.87921 14.4288C2.12336 15.2995 2.46515 16.1133 2.90461 16.8702C3.34406 17.627 3.8771 18.3147 4.50373 18.9332C5.13035 19.5517 5.81802 20.0806 6.56672 20.5201C7.31541 20.9595 8.12922 21.3054 9.00812 21.5577C9.88703 21.81 10.7903 21.932 11.7181 21.9239ZM10.9368 17.1876H12.4993V18.7501H10.9368V17.1876ZM11.7181 5.46881C12.2552 5.46881 12.7597 5.57054 13.2318 5.77399C13.7038 5.97744 14.1147 6.2582 14.4647 6.61628C14.8146 6.97435 15.0954 7.38939 15.3069 7.86139C15.5185 8.3334 15.6243 8.83796 15.6243 9.37506C15.6243 9.86335 15.547 10.2865 15.3924 10.6446C15.2378 11.0027 15.0465 11.3323 14.8187 11.6334C14.5908 11.9345 14.3385 12.199 14.0618 12.4268C13.7851 12.6547 13.5369 12.8948 13.3172 13.147C13.0975 13.3993 12.9022 13.6557 12.7313 13.9161C12.5604 14.1765 12.4831 14.4857 12.4993 14.8438V15.6251H10.9368V14.8438C10.9368 14.3555 11.0141 13.9324 11.1688 13.5743C11.3234 13.2162 11.5146 12.8866 11.7425 12.5855C11.9704 12.2844 12.2226 12.0199 12.4993 11.7921C12.776 11.5642 13.0242 11.3241 13.244 11.0718C13.4637 10.8196 13.659 10.5632 13.8299 10.3028C14.0008 10.0424 14.0781 9.73314 14.0618 9.37506C14.0618 9.04954 14.0008 8.74437 13.8787 8.45954C13.7567 8.17471 13.5898 7.9265 13.3782 7.71491C13.1666 7.50332 12.9184 7.33649 12.6336 7.21442C12.3488 7.09235 12.0436 7.03131 11.7181 7.03131C11.3926 7.03131 11.0874 7.09235 10.8026 7.21442C10.5177 7.33649 10.2695 7.50332 10.0579 7.71491C9.84634 7.9265 9.67951 8.17471 9.55744 8.45954C9.43537 8.74437 9.37433 9.04954 9.37433 9.37506H7.81183C7.81183 8.83796 7.91356 8.3334 8.11701 7.86139C8.32046 7.38939 8.59715 6.97842 8.94709 6.62848C9.29702 6.27855 9.71206 5.99779 10.1922 5.7862C10.6723 5.57461 11.181 5.46881 11.7181 5.46881Z"/>
</svg>
